<svg width="1200" height="640" viewBox="0 0 1200 640" fill="none" xmlns="http://www.w3.org/2000/svg">
  <defs>
    <linearGradient id="bg" x1="72" y1="52" x2="1128" y2="588" gradientUnits="userSpaceOnUse">
      <stop stop-color="#0A1221"/>
      <stop offset="0.55" stop-color="#13243D"/>
      <stop offset="1" stop-color="#1D3D5F"/>
    </linearGradient>
    <linearGradient id="line" x1="180" y1="130" x2="1008" y2="496" gradientUnits="userSpaceOnUse">
      <stop stop-color="#88F3D6"/>
      <stop offset="0.45" stop-color="#6AB7FF"/>
      <stop offset="1" stop-color="#F6D06B"/>
    </linearGradient>
    <radialGradient id="glow" cx="0" cy="0" r="1" gradientUnits="userSpaceOnUse" gradientTransform="translate(902 196) rotate(121.773) scale(326.817 421.001)">
      <stop stop-color="#7DD3FC" stop-opacity="0.34"/>
      <stop offset="1" stop-color="#7DD3FC" stop-opacity="0"/>
    </radialGradient>
  </defs>

  <rect x="20" y="20" width="1160" height="600" rx="30" fill="url(#bg)"/>
  <rect x="20" y="20" width="1160" height="600" rx="30" stroke="#305173" stroke-width="2"/>
  <rect x="52" y="52" width="1096" height="536" rx="22" fill="url(#glow)"/>

  <g opacity="0.18" stroke="#5D7EA0" stroke-width="1">
    <path d="M88 156H1112"/>
    <path d="M88 252H1112"/>
    <path d="M88 348H1112"/>
    <path d="M88 444H1112"/>
    <path d="M88 540H1112"/>
    <path d="M220 88V556"/>
    <path d="M420 88V556"/>
    <path d="M620 88V556"/>
    <path d="M820 88V556"/>
    <path d="M1020 88V556"/>
  </g>

  <g stroke="url(#line)" stroke-width="4" stroke-linecap="round">
    <path d="M168 408C224 366 267 336 328 314C404 286 447 284 520 300C596 317 635 362 706 388C774 413 822 420 888 404C957 387 1008 340 1030 266"/>
    <path opacity="0.55" d="M162 450C228 424 287 398 356 404C429 410 470 454 542 464C611 473 668 459 730 430C797 399 856 340 938 324C983 315 1024 318 1052 326"/>
  </g>

  <g fill="#06121E" stroke="#9AD9FF" stroke-width="2">
    <circle cx="328" cy="314" r="12"/>
    <circle cx="520" cy="300" r="12"/>
    <circle cx="706" cy="388" r="12"/>
    <circle cx="888" cy="404" r="12"/>
    <circle cx="1030" cy="266" r="12"/>
  </g>

  <g fill="#C7F9ED" font-family="'SF Pro Display', 'Segoe UI', Arial, sans-serif">
    <text x="86" y="116" font-size="18" letter-spacing="4">GOVERNED AGENT SWARM CONTROL PLANE</text>
    <text x="86" y="236" font-size="94" font-weight="700">Crawfish</text>
    <text x="86" y="290" font-size="28" fill="#9CC8E6">Lifecycle. Contracts. Governance. Continuity. Verification.</text>
  </g>

  <g font-family="'SF Pro Text', 'Segoe UI', Arial, sans-serif" fill="#DCEBFF">
    <text x="86" y="372" font-size="26">Harnesses multiply.</text>
    <text x="86" y="410" font-size="26">Reasoning churns.</text>
    <text x="86" y="448" font-size="26">Governance lags.</text>
    <text x="86" y="486" font-size="26">Control planes become strategic.</text>
  </g>

  <g fill="#0F2134" stroke="#5FD1C1" stroke-width="1.5">
    <rect x="770" y="104" width="294" height="84" rx="16"/>
    <rect x="846" y="230" width="218" height="84" rx="16"/>
    <rect x="786" y="356" width="278" height="96" rx="16"/>
  </g>

  <g fill="#EAF8FF" font-family="'SF Pro Text', 'Segoe UI', Arial, sans-serif">
    <text x="792" y="136" font-size="18">Swarm runtime</text>
    <text x="792" y="164" font-size="26" font-weight="700">Own the law layer</text>

    <text x="868" y="262" font-size="18">Harness plane</text>
    <text x="868" y="290" font-size="26" font-weight="700">Route, do not worship</text>

    <text x="808" y="390" font-size="18">Model churn</text>
    <text x="808" y="418" font-size="26" font-weight="700">Verify what survives</text>
  </g>

  <g stroke="#5B9BC8" stroke-width="2" stroke-dasharray="7 9" opacity="0.6">
    <path d="M732 388L780 154"/>
    <path d="M888 404L886 314"/>
    <path d="M1004 278L980 356"/>
  </g>
</svg>
